<svg id="visual" viewBox="0 0 900 600" width="900" height="600" xmlns="http://www.w3.org/2000/svg" xmlns:xlink="http://www.w3.org/1999/xlink" version="1.1"><rect x="0" y="0" width="900" height="600" fill="#002233"></rect><path d="M0 152L25 140.3C50 128.7 100 105.3 150 123.2C200 141 250 200 300 218.5C350 237 400 215 450 209.5C500 204 550 215 600 209.8C650 204.7 700 183.3 750 163.3C800 143.3 850 124.7 875 115.3L900 106L900 0L875 0C850 0 800 0 750 0C700 0 650 0 600 0C550 0 500 0 450 0C400 0 350 0 300 0C250 0 200 0 150 0C100 0 50 0 25 0L0 0Z" fill="#6EC0D9" stroke-linecap="round" stroke-linejoin="miter"></path></svg>